<svg width="63" height="21" viewBox="0 0 63 21" fill="none" xmlns="http://www.w3.org/2000/svg">
<path fill-rule="evenodd" clip-rule="evenodd" d="M38.9377 15.5945C35.2808 18.5359 29.9786 20.1004 25.4132 20.1004C19.0143 20.1004 13.2525 17.5227 8.89172 13.2314C8.54942 12.8944 8.85482 12.434 9.26628 12.695C13.9709 15.6788 19.7884 17.4757 25.7973 17.4757C29.8507 17.4757 34.3065 16.5588 38.4063 14.6637C39.0246 14.3775 39.543 15.1078 38.9377 15.5945Z" fill="#787878"/>
<path fill-rule="evenodd" clip-rule="evenodd" d="M40.6849 14.1923C40.2056 13.6213 37.5179 13.9216 36.3108 14.056C35.9451 14.0969 35.8883 13.7999 36.218 13.5842C38.3619 12.1827 41.8747 12.5875 42.2829 13.0564C42.6946 13.5299 42.1754 16.8078 40.166 18.3722C39.8569 18.6129 39.5631 18.4846 39.7 18.1666C40.152 17.116 41.1643 14.7633 40.6849 14.1923Z" fill="#787878"/>
<path fill-rule="evenodd" clip-rule="evenodd" d="M35.8466 3.22575V1.76564C35.8475 1.5434 36.0184 1.39525 36.224 1.3957L42.8968 1.39502C43.11 1.39502 43.2814 1.54747 43.2818 1.76383L43.2814 3.01616C43.2797 3.2262 43.0994 3.50038 42.7789 3.93536L39.3225 8.77552C40.6056 8.74616 41.9628 8.93429 43.1287 9.57706C43.3914 9.72183 43.4619 9.93683 43.4826 10.1471V11.705C43.4826 11.9198 43.2431 12.1682 42.9914 12.039C40.9374 10.9839 38.2119 10.8685 35.941 12.0517C35.7089 12.173 35.4659 11.9281 35.4659 11.7134V10.2322C35.4659 9.99533 35.4705 9.58993 35.7142 9.22857L39.7188 3.59411L36.2321 3.59343C36.0191 3.59343 35.848 3.44437 35.8466 3.22575Z" fill="#787878"/>
<path fill-rule="evenodd" clip-rule="evenodd" d="M13.1264 12.0839H11.2224C11.0411 12.072 10.8962 11.9352 10.8817 11.761L10.883 1.95482C10.883 1.75868 11.0474 1.60178 11.2504 1.60178L13.0238 1.60134C13.2094 1.61088 13.3584 1.75175 13.3701 1.93055V3.21096H13.4057C13.868 1.97281 14.7389 1.39502 15.912 1.39502C17.103 1.39502 17.8496 1.97281 18.3829 3.21096C18.8449 1.97281 19.8936 1.39502 21.0136 1.39502C21.8134 1.39502 22.6844 1.72509 23.2177 2.46803C23.822 3.29332 23.6978 4.49029 23.6978 5.54271L23.6963 11.7309C23.6963 11.9268 23.5317 12.0839 23.3291 12.0839H21.427C21.2358 12.0716 21.0851 11.9196 21.0851 11.7317L21.0846 6.53314C21.0846 6.1205 21.1203 5.08867 21.0313 4.69661C20.8892 4.03625 20.4625 3.85052 19.9115 3.85052C19.4495 3.85052 18.9693 4.16 18.7738 4.65543C18.5783 5.15065 18.5963 5.97594 18.5963 6.53314V11.7309C18.5963 11.9268 18.4317 12.0839 18.2289 12.0839H16.3269C16.1358 12.0716 15.985 11.9196 15.985 11.7317L15.9831 6.53314C15.9831 5.43955 16.1608 3.82993 14.81 3.82993C13.4411 3.82993 13.4945 5.39815 13.4945 6.53314L13.4938 11.7309C13.4941 11.9268 13.3295 12.0839 13.1264 12.0839Z" fill="#787878"/>
<path fill-rule="evenodd" clip-rule="evenodd" d="M49.3441 2.92223C47.9539 2.92223 47.8661 4.89887 47.8661 6.13164C47.8661 7.36464 47.8485 10.0005 49.3266 10.0005C50.7871 10.0005 50.8573 7.87476 50.8573 6.57814C50.8573 5.72801 50.8222 4.70777 50.5759 3.89983C50.3644 3.19839 49.9422 2.92223 49.3441 2.92223ZM49.3266 0.860352C52.1243 0.860352 53.6372 3.36854 53.6372 6.55696C53.6372 9.6389 51.966 12.0837 49.3266 12.0837C46.5817 12.0837 45.0861 9.57527 45.0861 6.4507C45.0861 3.30469 46.5992 0.860352 49.3266 0.860352Z" fill="#787878"/>
<path fill-rule="evenodd" clip-rule="evenodd" d="M57.004 12.0839H55.0594C54.8639 12.0716 54.7092 11.9196 54.7092 11.7317L54.7061 1.92188C54.7224 1.74265 54.8843 1.60178 55.0809 1.60178L56.8915 1.60134C57.0617 1.60979 57.2023 1.72379 57.2382 1.87593V3.37589H57.275C57.8216 2.03458 58.5865 1.39502 59.9349 1.39502C60.8092 1.39502 61.6658 1.7045 62.2124 2.5506C62.7227 3.33471 62.7227 4.65543 62.7227 5.60447V11.7749C62.7006 11.9489 62.5414 12.0839 62.3486 12.0839H60.3918C60.2112 12.0724 60.0655 11.9426 60.0442 11.7749V6.45057C60.0442 5.37756 60.1718 3.80934 58.8234 3.80934C58.3496 3.80934 57.9124 4.11882 57.6941 4.59345C57.4209 5.19183 57.3841 5.79021 57.3841 6.45057V11.7309C57.3806 11.9268 57.2119 12.0839 57.004 12.0839Z" fill="#787878"/>
<path fill-rule="evenodd" clip-rule="evenodd" d="M33.2684 11.8211C33.14 11.9362 32.9551 11.9439 32.8104 11.8663C32.1666 11.3306 32.0512 11.083 31.6994 10.5734C30.6353 11.6583 29.8816 11.9836 28.5037 11.9836C26.8718 11.9836 25.6023 10.9757 25.6023 8.95985C25.6023 7.38484 26.4545 6.31401 27.6695 5.78893C28.7211 5.32679 30.19 5.24295 31.3142 5.11685V4.86488C31.3142 4.40296 31.3505 3.85698 31.0785 3.458C30.8426 3.10105 30.3894 2.95405 29.9904 2.95405C29.2512 2.95405 28.594 3.33322 28.4324 4.11907C28.399 4.29381 28.2715 4.46678 28.0958 4.47558L26.217 4.27224C26.0585 4.23637 25.8822 4.10895 25.9279 3.86666C26.3597 1.58524 28.4179 0.895996 30.2626 0.895996C31.2054 0.895996 32.4384 1.14797 33.1817 1.86208C34.1248 2.74411 34.034 3.91991 34.034 5.20091V8.22351C34.034 9.1326 34.4115 9.53158 34.7657 10.0214C34.8895 10.1979 34.9174 10.4079 34.7593 10.5368C34.3633 10.8689 33.66 11.4807 33.2728 11.8253L33.2684 11.8211ZM31.3139 7.09093C31.3139 7.84708 31.332 8.47691 30.9512 9.14898C30.6429 9.69497 30.1535 10.0308 29.6093 10.0308C28.866 10.0308 28.4308 9.46368 28.4308 8.62391C28.4308 6.97166 29.9116 6.67105 31.3139 6.67105V7.09093Z" fill="#787878"/>
<path fill-rule="evenodd" clip-rule="evenodd" d="M7.85861 11.8211C7.73021 11.9362 7.54508 11.9439 7.40063 11.8663C6.75664 11.3306 6.64143 11.083 6.28942 10.5734C5.22571 11.6583 4.47201 11.9836 3.09389 11.9836C1.46182 11.9836 0.192749 10.9757 0.192749 8.95985C0.192749 7.38484 1.04495 6.31401 2.25971 5.78893C3.31155 5.32679 4.78026 5.24295 5.90444 5.11685V4.86488C5.90444 4.40296 5.94072 3.85698 5.66874 3.458C5.43304 3.10105 4.97946 2.95405 4.58084 2.95405C3.84165 2.95405 3.18403 3.33322 3.02287 4.11907C2.98923 4.29381 2.86193 4.46678 2.68603 4.47558L0.807495 4.27224C0.648752 4.23637 0.472199 4.10895 0.518151 3.86666C0.949749 1.58524 3.00814 0.895996 4.8526 0.895996C5.7956 0.895996 7.02861 1.14797 7.7722 1.86208C8.71499 2.74411 8.6244 3.91991 8.6244 5.20091V8.22351C8.6244 9.1326 9.00148 9.53158 9.3559 10.0214C9.47947 10.1979 9.50739 10.4079 9.34952 10.5368C8.95376 10.8689 8.24997 11.4807 7.86323 11.8253L7.85861 11.8211ZM5.9045 7.09093C5.9045 7.84708 5.92275 8.47691 5.54172 9.14898C5.23369 9.69497 4.74404 10.0308 4.20009 10.0308C3.45673 10.0308 3.02139 9.46368 3.02139 8.62391C3.02139 6.97166 4.50241 6.67105 5.9045 6.67105V7.09093Z" fill="#787878"/>
</svg>
