<svg width="105" height="14" viewBox="0 0 105 14" fill="none" xmlns="http://www.w3.org/2000/svg">
<path d="M4.13965 6.47486C4.0232 6.32791 3.80693 6.29525 3.6572 6.40955C3.60729 6.44221 3.57402 6.49119 3.55739 6.54017L0.562873 12.4346C0.479692 12.6142 0.546237 12.8265 0.729235 12.9081C0.779143 12.9244 0.829052 12.9408 0.895596 12.9408H5.07128C5.20437 12.9408 5.33746 12.8754 5.38736 12.7448C6.26908 10.9161 5.72009 8.14032 4.13965 6.47486Z" fill="#787878"/>
<path d="M6.46322 0.60789C4.90235 3.00973 4.71367 6.04184 5.98295 8.61403L8.05839 12.7363C8.127 12.8556 8.24707 12.9407 8.38428 12.9407H12.6895C12.8954 12.9407 13.0669 12.7704 13.0669 12.566C13.0669 12.5149 13.0497 12.4468 13.0326 12.3956C13.0326 12.3956 7.23507 0.880439 7.09785 0.590855C7.01209 0.420512 6.80626 0.352375 6.63474 0.437546C6.54898 0.488649 6.49752 0.539752 6.46322 0.60789Z" fill="#787878"/>
<path fill-rule="evenodd" clip-rule="evenodd" d="M65.8494 10.2119C65.8494 10.2152 65.8494 10.2186 65.8494 10.2219L57.9968 5.64962C57.9967 5.63976 57.9967 5.62988 57.9967 5.62L65.8494 10.2119ZM65.8494 10.2119L65.8661 10.2216C65.8661 12.2349 64.7202 13.601 61.8724 13.601C59.8503 13.601 58.7719 13.1156 57.9462 12.6842V10.0778C59.1594 10.8148 60.5244 11.2103 61.9061 11.2283C63.052 11.2283 63.389 10.8508 63.389 10.2935C63.389 9.71834 63.052 9.43073 61.4174 9.07123C58.7045 8.49958 58.0053 7.23554 57.9968 5.64962L57.9464 5.62025C57.9464 3.60703 59.3113 2.38472 61.9569 2.38472C63.1196 2.34877 64.2654 2.60042 65.327 3.1217V5.63823C64.2317 5.09897 63.069 4.72149 61.8895 4.72149C60.9121 4.72149 60.3897 4.99112 60.3897 5.62025C60.3897 6.10558 60.7605 6.46509 62.2265 6.80661C64.9011 7.4167 65.8461 8.31338 65.8494 10.2119Z" fill="#787878"/>
<path d="M95.5663 2.38135V12.9412H97.8238V4.89478L98.7688 7.02421L101.971 12.9412H104.806V2.38135H102.549V9.206L101.691 7.21621L99.1187 2.38135H95.5663Z" fill="#787878"/>
<rect x="78.407" y="2.38135" width="2.63997" height="10.5599" fill="#787878"/>
<path d="M76.4266 10.2219C76.4266 8.31653 75.4086 7.41777 72.5184 6.80661C70.9369 6.46509 70.537 6.10558 70.537 5.62025C70.537 4.99112 71.1005 4.72149 72.1548 4.72149C73.4273 4.72149 74.6815 5.09897 75.8631 5.63823V3.1217C74.7179 2.60042 73.4818 2.34877 72.2275 2.38472C69.3736 2.38472 67.9012 3.60703 67.9012 5.62025C67.9012 7.22004 68.6465 8.49628 71.5913 9.07149C73.3545 9.43099 73.7181 9.71859 73.7181 10.2938C73.7181 10.851 73.3545 11.2285 72.1185 11.2285C70.6279 11.2105 69.1555 10.8151 67.8467 10.0781V12.6845C68.7374 13.1159 69.9008 13.6012 72.0821 13.6012C75.2087 13.5833 76.4266 12.2351 76.4266 10.2219Z" fill="#787878"/>
<path d="M38.8074 2.38135V12.9412H43.9494L44.7473 10.6547H41.3252V2.38135H38.8074Z" fill="#787878"/>
<path d="M28.9075 2.38135V4.66787H31.5758V12.9412H33.9891V4.66787H36.8274V2.38135H28.9075Z" fill="#787878"/>
<path fill-rule="evenodd" clip-rule="evenodd" d="M22.0119 2.38135H25.2424L28.9071 12.9412H26.1108L25.5897 11.1609C24.3045 11.5449 22.9498 11.5449 21.6645 11.1609L21.1435 12.9412H18.3472L22.0119 2.38135ZM22.2723 9.06594C22.7239 9.18812 23.1755 9.25794 23.6271 9.25794C24.0786 9.25794 24.5302 9.20558 24.9818 9.06594L23.6271 4.45799L22.2723 9.06594Z" fill="#787878"/>
<path fill-rule="evenodd" clip-rule="evenodd" d="M49.0722 2.38135H52.3027L55.9674 12.9412H53.1711L52.65 11.1609C51.3648 11.5449 50.0101 11.5449 48.7248 11.1609L48.2038 12.9412H45.4075L49.0722 2.38135ZM49.3329 9.06594C49.7844 9.18812 50.236 9.25794 50.6876 9.25794C51.1392 9.25794 51.5907 9.20558 52.0423 9.06594L50.6876 4.45799L49.3329 9.06594Z" fill="#787878"/>
<path fill-rule="evenodd" clip-rule="evenodd" d="M86.6911 2.38135H89.9216L93.5863 12.9412H90.79L90.2689 11.1609C88.9837 11.5449 87.629 11.5449 86.3437 11.1609L85.8227 12.9412H83.0264L86.6911 2.38135ZM86.9516 9.06594C87.4032 9.18812 87.8547 9.25794 88.3063 9.25794C88.7579 9.25794 89.2095 9.20558 89.661 9.06594L88.3063 4.45799L86.9516 9.06594Z" fill="#787878"/>
</svg>
