<svg width="78" height="16" viewBox="0 0 78 16" fill="none" xmlns="http://www.w3.org/2000/svg">
<path d="M13.2967 14.4432C9.73993 14.4432 6.85741 11.5592 6.85741 8.00174C6.85741 4.4441 9.73993 1.56282 13.2967 1.56282C14.5504 1.56282 15.7208 1.92036 16.7096 2.54011L13.2967 8.00174L19.7218 4.29187C19.0237 3.17965 18.0225 2.2213 16.8119 1.49407C15.2714 0.571763 13.1284 0.000976562 10.7588 0.000976562C7.37866 0.000976562 4.41323 1.22928 2.75949 3.06873C1.5351 4.42852 0.806152 6.13992 0.806152 8.00165C0.806152 9.86471 1.5351 11.5774 2.75949 12.9381C4.41753 14.7798 7.33878 16.001 10.6632 16.001C13.9871 16.001 16.9075 14.7789 18.5666 12.9381C18.6575 12.8367 18.7454 12.7344 18.8286 12.6283L18.5781 11.6892C17.4124 13.3531 15.4817 14.4432 13.2967 14.4432Z" fill="#787878"/>
<path d="M34.5992 15.6136L31.9025 5.55386C31.4694 3.92823 29.9891 2.7334 28.2267 2.7334C27.7696 2.7334 27.3317 2.81506 26.9253 2.9629L21.1199 5.07392H27.0907L28.111 8.88439C27.1213 8.03256 25.8323 7.51427 24.4208 7.51427C21.6181 7.51427 19.3489 9.39245 19.3489 11.7093C19.3489 14.0262 21.6181 15.9072 24.4208 15.9072C26.4385 15.9072 28.2229 14.9194 29.3235 13.4018L29.9155 15.6136H34.5992ZM26.3735 14.0511C25.0806 14.0511 24.0326 13.004 24.0326 11.7093C24.0326 10.4164 25.0806 9.36835 26.3735 9.36835C27.6664 9.36835 28.7154 10.4164 28.7154 11.7093C28.7154 13.004 27.6664 14.0511 26.3735 14.0511Z" fill="#787878"/>
<path d="M45.5928 2.73486C45.239 2.73486 44.9043 2.81308 44.606 2.95318L40.8785 4.6903C40.694 3.58067 39.7301 2.73486 38.5673 2.73486C38.2154 2.73486 37.8797 2.81308 37.5775 2.95318L33.0267 5.07366H36.2264V15.6135H40.9101V6.24622C40.9101 5.59989 41.4331 5.07376 42.0815 5.07376C42.726 5.07376 43.2529 5.59989 43.2529 6.24622V15.6135H47.9347V5.07366C47.9347 3.7811 46.8857 2.73496 45.5928 2.73496" fill="#787878"/>
<path d="M63.1551 9.368C63.1551 13.0315 60.1859 16.0007 56.5235 16.0007C52.8582 16.0007 49.8871 13.0315 49.8871 9.368C49.8871 5.70546 52.8582 2.73486 56.5235 2.73486C60.1859 2.73486 63.1551 5.70555 63.1551 9.368ZM56.7979 4.74796C56.5895 3.96747 55.7872 3.50417 55.0069 3.71397C54.2275 3.92291 53.7618 4.72568 53.9712 5.50608L56.2462 13.9877C56.4565 14.769 57.2569 15.2318 58.0372 15.0253C58.8175 14.8139 59.2813 14.0116 59.0719 13.2313L56.7979 4.74796Z" fill="#787878"/>
<path d="M74.9643 2.73486C74.6095 2.73486 74.2729 2.81308 73.9697 2.95318L70.2461 4.6903C70.0625 3.58067 69.0986 2.73486 67.9358 2.73486C67.5839 2.73486 67.2483 2.81308 66.9451 2.95318L62.3962 5.07366H65.5949V15.6135H70.2777V6.24622C70.2777 5.59989 70.8017 5.07376 71.45 5.07376C72.0965 5.07376 72.6195 5.59989 72.6195 6.24622V15.6135H77.3052V5.07366C77.3052 3.7811 76.2552 2.73496 74.9643 2.73496" fill="#787878"/>
</svg>
