<svg width="89" height="21" viewBox="0 0 89 21" fill="none" xmlns="http://www.w3.org/2000/svg">
<path fill-rule="evenodd" clip-rule="evenodd" d="M50.0446 13.8704C50.0446 14.045 50.0283 14.2262 49.9827 14.383C49.7902 15.0386 49.1282 15.5939 48.3019 15.5939C47.6137 15.5939 47.0642 15.1908 47.0642 14.3402C47.0642 13.0392 48.4584 12.6798 50.0446 12.6885V13.8704ZM52.5321 11.6038C52.5321 9.45727 51.6399 7.56934 48.6273 7.56934C47.0811 7.56934 45.8523 8.01574 45.1825 8.41328L45.6726 10.1383C46.285 9.74079 47.2614 9.41197 48.1847 9.41197C49.7135 9.4084 49.9635 10.3022 49.9635 10.8749V11.0103C46.6311 11.0047 44.526 12.1907 44.526 14.6075C44.526 16.0836 45.5989 17.4671 47.4624 17.4671C48.61 17.4671 49.5685 16.9963 50.1428 16.2429H50.2007C50.2007 16.2429 50.5804 17.8784 52.6771 17.2538C52.5682 16.5723 52.5321 15.8449 52.5321 14.9714V11.6038Z" fill="#787878"/>
<path fill-rule="evenodd" clip-rule="evenodd" d="M0.277222 5.24072C0.277222 5.24072 2.43779 14.0453 2.78273 15.4745C3.18517 17.1427 3.91043 17.7559 6.00172 17.343L7.35053 11.8841C7.69302 10.5272 7.922 9.56116 8.14164 8.18176H8.18046C8.33426 9.57533 8.55489 10.5316 8.83644 11.8885C8.83644 11.8885 9.38531 14.3663 9.66686 15.668C9.9494 16.9687 10.7336 17.7896 12.7817 17.343L15.9972 5.24072H13.4013L12.3036 10.4729C12.0078 11.9955 11.7414 13.1863 11.5341 14.5798H11.4977C11.3095 13.2 11.0717 12.0571 10.771 10.5736L9.62854 5.24072H6.92304L5.70149 10.4387C5.35507 12.0185 5.03125 13.2943 4.82488 14.6394H4.78802C4.57673 13.3724 4.29518 11.7693 3.992 10.2403C3.992 10.2403 3.26477 6.52288 3.01024 5.24072" fill="#787878"/>
<path fill-rule="evenodd" clip-rule="evenodd" d="M20.9324 13.8704C20.9324 14.045 20.9181 14.2262 20.8705 14.383C20.678 15.0386 20.0171 15.5939 19.1908 15.5939C18.5012 15.5939 17.9537 15.1908 17.9537 14.3402C17.9537 13.0392 19.3468 12.6798 20.9324 12.6885V13.8704ZM23.4195 11.6038C23.4195 9.45727 22.5279 7.56934 19.5155 7.56934C17.9679 7.56934 16.7407 8.01574 16.0699 8.41328L16.561 10.1383C17.1734 9.74079 18.1486 9.41197 19.0729 9.41197C20.6021 9.4084 20.8521 10.3022 20.8521 10.8749V11.0103C17.5194 11.0047 15.4149 12.1907 15.4149 14.6075C15.4149 16.0836 16.4867 17.4671 18.3501 17.4671C19.4967 17.4671 20.4561 16.9963 21.0308 16.2429H21.0868C21.0868 16.2429 21.468 17.8784 23.566 17.2538C23.4551 16.5723 23.4195 15.8449 23.4195 14.9714V11.6038Z" fill="#787878"/>
<path fill-rule="evenodd" clip-rule="evenodd" d="M27.6416 14.871V5.24072H25.3127V17.4674H27.6416" fill="#787878"/>
<path fill-rule="evenodd" clip-rule="evenodd" d="M60.8282 5.24072V14.1116C60.8282 15.3324 61.0642 16.1902 61.571 16.714C62.012 17.1708 62.7398 17.4674 63.6118 17.4674C64.3551 17.4674 65.0854 17.3305 65.4282 17.2057L65.3957 15.2975C65.1403 15.3587 64.845 15.4077 64.4424 15.4077C63.5884 15.4077 63.3021 14.8756 63.3021 13.7771V10.3849H65.486V8.08392H63.3021V5.24072" fill="#787878"/>
<path fill-rule="evenodd" clip-rule="evenodd" d="M54.4238 8.3575V17.4674H56.9176V12.8023C56.9176 12.5506 56.9335 12.3308 56.9719 12.13C57.1576 11.1528 57.8909 10.529 58.9454 10.529C59.2344 10.529 59.4417 10.5603 59.6638 10.5931V8.20816C59.4773 8.16899 59.3493 8.15186 59.1152 8.15186C58.1832 8.15186 57.1244 8.7629 56.6801 10.0756H56.6118V8.3575" fill="#787878"/>
<path fill-rule="evenodd" clip-rule="evenodd" d="M29.3883 8.3575V17.4674H31.9323V12.1247C31.9323 11.8745 31.9615 11.6086 32.052 11.3794C32.2634 10.8414 32.7776 10.2112 33.5978 10.2112C34.6242 10.2112 35.1047 11.0553 35.1047 12.2755V17.4674H37.6457V12.06C37.6457 11.8211 37.6794 11.5337 37.7524 11.3212C37.9607 10.7092 38.5147 10.2112 39.2785 10.2112C40.3195 10.2112 40.8187 11.0416 40.8187 12.4757V17.4674H43.3616V12.1021C43.3616 9.27162 41.8849 8.15186 40.2189 8.15186C39.4802 8.15186 38.8976 8.33155 38.3713 8.64637C37.928 8.91126 37.532 9.28631 37.1853 9.78083H37.1481C36.7456 8.79914 35.8001 8.15186 34.5674 8.15186C32.9844 8.15186 32.2734 8.93231 31.8407 9.59526H31.803V8.3575" fill="#787878"/>
<path fill-rule="evenodd" clip-rule="evenodd" d="M79.1662 6.98715C79.6639 6.98715 80.0757 6.7343 80.1311 6.40801L80.6238 0.977396C80.6238 0.441045 79.9788 0.000488281 79.1672 0.000488281C78.3576 0.000488281 77.7126 0.441045 77.7126 0.977396L78.2048 6.40801C78.2587 6.7343 78.6705 6.98715 79.1692 6.98715" fill="#787878"/>
<path fill-rule="evenodd" clip-rule="evenodd" d="M75.7967 8.72246C76.0365 8.27097 76.0177 7.76207 75.7645 7.53711L71.3537 4.17677C70.8953 3.88969 70.2075 4.23627 69.8164 4.9717C69.4261 5.70557 69.4939 6.52608 69.9524 6.8142L74.8355 9.28356C75.1426 9.40727 75.5583 9.1703 75.7981 8.72038" fill="#787878"/>
<path fill-rule="evenodd" clip-rule="evenodd" d="M81.9554 8.72037C82.1967 9.1703 82.6105 9.40727 82.9166 9.28356L87.8018 6.81417C88.2617 6.52604 88.3276 5.70552 87.9364 4.97165C87.5461 4.23673 86.8584 3.88962 86.3994 4.1767L81.9881 7.53708C81.7358 7.76205 81.719 8.27096 81.9569 8.72246" fill="#787878"/>
<path fill-rule="evenodd" clip-rule="evenodd" d="M79.1662 13.9736C79.6639 13.9736 80.0757 14.2265 80.1311 14.5527L80.6238 19.9826C80.6238 20.5188 79.9788 20.9603 79.1672 20.9603C78.3576 20.9603 77.7126 20.5188 77.7126 19.9826L78.2048 14.5527C78.2587 14.2265 78.6705 13.9736 79.1692 13.9736" fill="#787878"/>
<path fill-rule="evenodd" clip-rule="evenodd" d="M81.9554 11.6592C82.1967 11.2072 82.6105 10.9724 82.9166 11.0955L87.8018 13.5642C88.2617 13.8529 88.3276 14.6733 87.9364 15.4082C87.5461 16.1415 86.8584 16.4897 86.3994 16.2026L81.9881 12.8424C81.7358 12.6164 81.719 12.1081 81.9569 11.6571" fill="#787878"/>
<path fill-rule="evenodd" clip-rule="evenodd" d="M75.7967 11.6578C76.0365 12.1088 76.0177 12.6167 75.7645 12.8433L71.3537 16.2024C70.8953 16.4895 70.2075 16.1428 69.8164 15.4094C69.4261 14.6745 69.4939 13.8528 69.9524 13.5642L74.8355 11.0961C75.1426 10.9714 75.5583 11.2073 75.7981 11.6594" fill="#787878"/>
</svg>
